# xmcd
#
# Track frame offsets:
#	150
#	16521
#	25302
#	38537
#	52482
#	63923
#	79143
#	87972
#	105935
#	120040
#	136561
#
# Disc length: 2059 seconds
#
# Revision: 0
# Processed by: cddbd v1.4PL0 Copyright (c) Steve Scherf et al.
# Submitted via: dBpowerAMP V4.0
#
DISCID=7308090b
DTITLE=Sam Hahn - Dean Meets Captain America
DYEAR=1900
DGENRE=Acoustic Blues
TTITLE0=Even Been Angry
TTITLE1=The Weather Song
TTITLE2=Mystery Man
TTITLE3=Rest Easy
TTITLE4=The Time of my Life
TTITLE5=Crazy Man
TTITLE6=145
TTITLE7=Way to Go
TTITLE8=My Boy
TTITLE9=Lie Like Spoons
TTITLE10=Little Vices
EXTD=
EXTT0=
EXTT1=
EXTT2=
EXTT3=
EXTT4=
EXTT5=
EXTT6=
EXTT7=
EXTT8=
EXTT9=
EXTT10=
PLAYORDER=
